<svg width="1008" height="720" version="1.1" xmlns="http://www.w3.org/2000/svg" desc="Created with imagetracer.js version 1.2.6" ><path fill="rgb(0,0,0)" stroke="rgb(0,0,0)" stroke-width="1" opacity="0" d="M 0 0 L 1008 0 L 1008 720 L 0 720 L 0 0 Z M 228 140 L 223 142 L 220 152 L 219 165 L 218 166 L 218 206 L 219 207 L 219 221 L 220 222 L 221 241 L 222 242 L 222 254 L 226 274 L 226 280 L 233 311 L 232 314 L 228 314 L 221 311 L 211 309 L 190 309 L 185 310 Q 173 312 167 319 L 162 320 L 156 311 L 145 271 L 145 266 L 138 238 L 136 218 L 133 209 L 128 208 L 124 214 L 125 244 L 130 272 L 133 280 L 133 285 L 144 323 L 162 375 L 170 380 L 177 379 L 179 375 L 178 361 L 173 346 Q 172 336 175 331 Q 180 323 190 321 L 203 321 L 212 323 L 234 333 Q 241 338 244 348 L 255 377 Q 254 383 257 386 L 257 393 L 254 401 L 236 426 L 218 444 Q 208 452 195 456 Q 178 458 171 451 Q 160 443 155 431 L 142 391 L 140 389 L 136 395 L 134 404 L 137 426 L 142 440 L 151 456 Q 158 465 172 468 L 190 468 L 207 463 Q 222 456 234 446 L 251 428 L 255 441 L 261 451 L 273 461 L 290 467 L 309 467 L 323 464 L 340 457 L 359 444 Q 369 434 377 422 L 382 411 L 385 396 L 385 386 L 381 367 Q 375 350 364 340 Q 351 324 327 320 Q 305 319 296 330 L 288 340 L 281 354 Q 260 336 250 309 L 241 275 L 241 268 L 238 253 L 238 237 L 237 236 L 237 178 L 238 177 L 238 143 L 239 142 L 238 140 L 228 140 Z M 753 176 L 747 179 L 738 189 L 733 205 L 733 239 L 738 268 L 737 274 L 735 276 L 723 280 L 717 286 L 719 293 L 730 300 L 745 307 L 755 321 L 774 362 L 775 363 L 753 356 L 738 347 Q 733 346 732 349 L 735 356 Q 743 363 755 368 L 765 372 L 778 374 L 782 376 L 794 390 Q 803 401 816 408 L 825 412 L 833 412 L 837 407 L 836 400 L 828 384 L 828 380 L 834 376 L 873 367 L 897 355 Q 904 351 905 341 L 901 332 Q 891 321 876 316 L 860 311 L 827 304 L 819 300 L 816 296 L 813 283 L 813 275 L 816 269 Q 824 260 839 257 L 864 257 L 879 262 Q 883 263 884 261 L 883 253 L 877 248 L 862 245 L 841 245 L 840 246 L 815 247 L 811 248 L 809 213 L 807 207 L 798 204 L 796 205 L 793 208 Q 794 212 792 214 L 792 255 L 762 263 L 756 262 L 753 259 Q 754 254 752 253 L 752 217 L 753 216 L 753 206 L 756 194 Q 760 191 761 185 L 760 179 Q 759 175 753 176 Z M 643 276 L 632 278 L 621 283 Q 597 297 577 315 Q 559 328 552 352 L 553 368 L 560 380 Q 569 389 582 394 L 601 398 L 619 397 L 633 393 Q 646 388 657 379 Q 667 371 673 360 L 679 347 L 681 337 L 681 330 L 682 329 L 682 323 L 679 307 Q 676 296 669 289 Q 663 282 655 278 L 644 277 L 643 276 Z M 460 304 L 447 307 L 440 311 L 427 326 L 422 344 Q 420 351 414 355 L 414 358 Q 424 365 429 379 L 437 399 L 442 416 L 448 429 L 456 434 Q 462 435 464 431 L 463 413 L 451 374 L 449 371 L 449 366 L 445 353 L 445 331 L 449 323 L 457 319 Q 469 317 475 323 Q 484 330 489 342 L 504 382 Q 509 394 518 404 Q 528 416 547 420 Q 553 422 555 419 Q 558 420 556 416 Q 550 408 541 404 L 527 389 L 520 373 L 514 354 L 506 338 L 497 325 Q 489 315 479 309 L 468 305 L 460 304 Z M 758 426 L 755 427 L 752 437 L 752 466 L 753 467 L 753 489 L 754 490 L 754 507 L 755 508 L 755 525 L 756 526 L 756 535 L 759 548 L 759 553 L 764 566 Q 766 572 775 572 L 778 567 L 777 555 L 772 534 L 772 525 L 772 523 L 771 522 L 771 496 L 770 495 L 770 444 L 769 443 L 768 432 Q 765 427 758 426 Z M 690 445 L 688 446 L 683 455 L 682 466 L 681 467 L 682 486 L 686 505 L 693 525 L 700 537 L 710 545 Q 716 546 719 544 L 720 542 Q 719 535 713 533 L 708 521 L 704 498 L 703 468 L 701 458 L 697 449 Q 696 444 690 445 Z M 676 557 L 674 558 L 670 563 L 667 573 L 668 588 Q 671 599 678 607 L 688 616 L 714 631 L 726 635 L 747 639 L 768 639 L 778 637 L 788 634 L 805 624 Q 813 618 817 608 Q 818 602 815 601 L 809 602 Q 794 614 776 622 L 760 627 L 737 627 L 733 626 L 715 619 L 700 609 L 690 594 L 686 581 L 685 567 L 682 561 Q 680 557 676 557 Z M 764 590 L 752 597 L 747 604 L 748 607 L 752 609 L 759 609 L 766 605 L 774 595 L 773 591 Q 770 589 764 590 Z " /><path fill="rgb(0,0,0)" stroke="rgb(0,0,0)" stroke-width="1" opacity="0" d="M 785.5 271 L 793.5 271 L 795 272.5 Q 798.5 281.5 799 293.5 L 796.5 297 L 794.5 298 L 774.5 298 L 763.5 294 L 760 290.5 L 760 284.5 L 765.5 279 L 770.5 276 L 785.5 271 Z " /><path fill="rgb(0,0,0)" stroke="rgb(0,0,0)" stroke-width="1" opacity="0" d="M 637.5 290 L 646.5 290 L 655 297.5 L 662 314.5 L 663 330.5 Q 657.6 358.6 638.5 373 L 631.5 378 L 617.5 384 Q 609.6 386.6 597.5 385 Q 584.2 381.8 577 372.5 L 575 369.5 Q 568.8 364.2 571 350.5 L 575 341.5 L 579.5 337 L 586.5 336 Q 594.9 345.1 608.5 349 Q 613.3 347.7 614.5 350 L 636.5 350 L 641 347.5 L 639.5 345 L 632.5 342 L 620.5 341 L 613.5 339 Q 607 337.5 604 332.5 L 605 321.5 L 614.5 307 L 621.5 304 Q 627.6 295.1 637.5 290 Z " /><path fill="rgb(0,0,0)" stroke="rgb(0,0,0)" stroke-width="1" opacity="0" d="M 783.5 312 L 793.5 313 L 802 318.5 L 806 328.5 L 808 338.5 L 808 356.5 L 807 361.5 L 804.5 365 L 801.5 365 L 793 357.5 Q 778.5 341.5 772 317.5 L 775.5 314 L 783.5 312 Z " /><path fill="rgb(0,0,0)" stroke="rgb(0,0,0)" stroke-width="1" opacity="0" d="M 820 316 L 862.5 325 L 875.5 329 L 885 334 L 886 338.5 L 880.5 345 L 852.5 359 L 842.5 362 L 834.5 362 L 829 358.5 L 823 344.5 L 820 316 Z " /><path fill="rgb(0,0,0)" stroke="rgb(0,0,0)" stroke-width="1" opacity="0" d="M 314.5 331 Q 326.3 330.7 332.5 336 L 349 349.5 L 359 364.5 L 363 375.5 L 365 386.5 L 365 402.5 L 363 408.5 L 363 413.5 L 359 423.5 Q 353.2 435.2 343.5 443 L 325.5 452 Q 320.8 450.8 319.5 453 L 301.5 453 Q 300 450.5 294.5 452 L 281.5 447 L 269 436.5 Q 265.5 433 266 425.5 L 269 417 Q 272.8 416.3 274 419.5 L 281 432.5 L 288.5 441 L 296.5 443 L 300 440.5 L 301 438.5 L 301 426.5 L 300 425.5 L 300 413.5 L 299 412.5 L 299 402.5 L 298 401.5 L 298 391.5 L 297 390.5 L 297 363.5 L 302 342.5 L 308.5 334 L 314.5 331 Z " /><path fill="rgb(205,205,205)" stroke="rgb(205,205,205)" stroke-width="1" opacity="0.9019607843137255" d="M 227.5 140 L 237.5 140 L 239 141.5 L 238 142.5 L 238 176.5 L 237 177.5 L 237 235.5 L 238 236.5 L 238 252.5 L 241 267.5 L 241 274.5 L 250 308.5 Q 260.3 336.2 280.5 354 L 288 339.5 L 295.5 330 Q 305.2 319.2 326.5 320 Q 350.5 324.5 364 339.5 Q 375.1 350.4 381 366.5 L 385 385.5 L 385 395.5 L 382 410.5 L 377 421.5 Q 369.5 434.5 358.5 444 L 339.5 457 L 322.5 464 L 308.5 467 L 289.5 467 L 272.5 461 L 261 450.5 L 255 440.5 L 250.5 428 L 233.5 446 Q 222 456.5 206.5 463 L 189.5 468 L 171.5 468 Q 157.9 465.1 151 455.5 L 142 439.5 L 137 425.5 L 134 403.5 L 136 394.5 L 139.5 389 L 142 390.5 L 155 430.5 Q 160.1 443.4 170.5 451 Q 177.7 458.3 194.5 456 Q 208 452 217.5 444 L 236 425.5 L 254 400.5 L 257 392.5 L 257 385.5 Q 254.4 382.6 255 376.5 L 244 347.5 Q 240.8 338.2 233.5 333 L 211.5 323 L 202.5 321 L 189.5 321 Q 179.5 323 175 330.5 Q 171.9 335.9 173 345.5 L 178 360.5 L 179 374.5 L 176.5 379 L 169.5 380 L 162 374.5 L 144 322.5 L 133 284.5 L 133 279.5 L 130 271.5 L 125 243.5 L 124 213.5 L 127.5 208 L 133 209 L 136 217.5 L 138 237.5 L 145 265.5 L 145 270.5 L 156 310.5 L 161.5 320 L 166.5 319 Q 173.2 312.2 184.5 310 L 189.5 309 L 210.5 309 L 220.5 311 L 227.5 314 L 232 314 L 233 310.5 L 226 279.5 L 226 273.5 L 222 253.5 L 222 241.5 L 221 240.5 L 220 221.5 L 219 220.5 L 219 206.5 L 218 205.5 L 218 165.5 L 219 164.5 L 220 151.5 L 223 142 L 227.5 140 Z M 315 331 L 309 334 L 302 343 L 297 364 L 297 391 L 298 392 L 298 402 L 299 403 L 299 413 L 300 414 L 300 426 L 301 427 L 301 439 L 300 441 L 297 443 L 289 441 L 281 433 L 274 420 Q 273 416 269 417 L 266 426 Q 265 433 269 437 L 282 447 L 295 452 Q 300 451 302 453 L 320 453 Q 321 451 326 452 L 344 443 Q 353 435 359 424 L 363 414 L 363 409 L 365 403 L 365 387 L 363 376 L 359 365 L 349 350 L 333 336 Q 326 331 315 331 Z " /><path fill="rgb(205,205,205)" stroke="rgb(205,205,205)" stroke-width="1" opacity="0.9019607843137255" d="M 752.5 176 Q 758.8 174.8 760 178.5 L 761 184.5 Q 760.2 190.7 756 193.5 L 753 205.5 L 753 215.5 L 752 216.5 L 752 252.5 Q 754.2 253.7 753 258.5 L 755.5 262 L 761.5 263 L 792 255 L 792 213.5 Q 794.3 212.3 793 207.5 L 795.5 205 L 797.5 204 L 807 207 L 809 212.5 L 811 248 L 814.5 247 L 839.5 246 L 840.5 245 L 861.5 245 L 876.5 248 L 883 252.5 L 884 260.5 Q 883 263 878.5 262 L 863.5 257 L 838.5 257 Q 824.1 259.6 816 268.5 L 813 274.5 L 813 282.5 L 816 295.5 L 819 300 L 826.5 304 L 859.5 311 L 875.5 316 Q 890.9 321.1 901 331.5 L 905 340.5 Q 903.5 350.5 896.5 355 L 872.5 367 L 833.5 376 L 828 379.5 L 828 383.5 L 836 399.5 L 837 406.5 L 832.5 412 L 824.5 412 L 815.5 408 Q 803 400.5 794 389.5 L 781.5 376 L 777.5 374 L 764.5 372 L 754.5 368 Q 743 363.5 735 355.5 L 732 348.5 Q 733 346 737.5 347 L 759.5 359 L 774 362 L 755 320.5 L 744.5 307 L 729.5 300 L 719 292.5 L 717 285.5 L 722.5 280 L 734.5 276 L 737 273.5 L 738 267.5 L 733 238.5 L 733 204.5 L 738 188.5 L 746.5 179 L 752.5 176 Z M 786 271 L 771 276 L 766 279 L 760 285 L 760 291 L 764 294 L 775 298 L 795 298 L 797 297 L 799 294 Q 799 281 795 273 L 794 271 L 786 271 Z M 784 312 L 776 314 L 772 318 Q 779 341 793 358 L 802 365 L 805 365 L 807 362 L 808 357 L 808 339 L 806 329 L 802 319 L 794 313 L 784 312 Z M 820 316 L 823 345 L 829 359 L 835 362 L 843 362 L 853 359 L 881 345 L 886 339 L 885 334 L 876 329 L 863 325 L 820 316 Z " /><path fill="rgb(205,205,205)" stroke="rgb(205,205,205)" stroke-width="1" opacity="0.9019607843137255" d="M 642.5 276 L 643.5 277 L 654.5 278 Q 663.4 281.6 669 288.5 Q 675.8 295.7 679 306.5 L 682 322.5 L 682 328.5 L 681 329.5 L 681 336.5 L 679 346.5 L 673 359.5 Q 666.6 371.1 656.5 379 Q 646.3 387.8 632.5 393 L 618.5 397 L 600.5 398 L 581.5 394 Q 568.6 388.9 560 379.5 L 553 367.5 L 552 351.5 Q 559.3 328.3 576.5 315 Q 596.7 297.2 620.5 283 L 631.5 278 L 642.5 276 Z M 638 290 Q 628 295 622 304 L 615 307 L 605 322 L 604 333 Q 607 337 614 339 L 621 341 L 633 342 L 640 345 L 641 348 L 637 350 L 615 350 Q 613 348 609 349 Q 595 345 587 336 L 580 337 L 575 342 L 571 351 Q 569 364 575 370 L 577 373 Q 584 382 598 385 Q 610 387 618 384 L 632 378 L 639 373 Q 658 359 663 331 L 662 315 L 655 298 L 647 290 L 638 290 Z " /><path fill="rgb(205,205,205)" stroke="rgb(205,205,205)" stroke-width="1" opacity="0.9019607843137255" d="M 459.5 304 L 467.5 305 L 478.5 309 Q 489.4 315.1 497 324.5 L 506 337.5 L 514 353.5 L 520 372.5 L 527 388.5 L 540.5 404 Q 549.9 408.1 556 415.5 Q 557.5 419.9 554.5 419 Q 552.8 421.8 546.5 420 Q 528.2 415.8 518 403.5 Q 509.4 394.1 504 381.5 L 489 341.5 Q 483.6 330.4 474.5 323 Q 469.2 317.3 456.5 319 L 449 323 L 445 330.5 L 445 352.5 L 449 365.5 L 449 370.5 L 451 373.5 L 463 412.5 L 464 430.5 Q 462.4 434.9 455.5 434 L 448 428.5 L 442 415.5 L 437 398.5 L 429 378.5 Q 424.2 365.3 414 357.5 L 414 354.5 Q 419.6 350.6 422 343.5 L 427 325.5 L 439.5 311 L 446.5 307 L 459.5 304 Z " /><path fill="rgb(205,205,205)" stroke="rgb(205,205,205)" stroke-width="1" opacity="0.9019607843137255" d="M 757.5 426 Q 765 426.5 768 431.5 L 769 442.5 L 770 443.5 L 770 494.5 L 771 495.5 L 771 521.5 L 772 522.5 L 772 524.5 L 772 533.5 L 777 554.5 L 778 566.5 L 774.5 572 Q 766.4 571.6 764 565.5 L 759 552.5 L 759 547.5 L 756 534.5 L 756 525.5 L 755 524.5 L 755 507.5 L 754 506.5 L 754 489.5 L 753 488.5 L 753 466.5 L 752 465.5 L 752 436.5 L 755 427 L 757.5 426 Z " /><path fill="rgb(205,205,205)" stroke="rgb(205,205,205)" stroke-width="1" opacity="0.9019607843137255" d="M 689.5 445 Q 695.7 444.3 697 448.5 L 701 457.5 L 703 467.5 L 704 497.5 L 708 520.5 L 713 532.5 Q 718.5 535 720 541.5 L 719 544 Q 716.3 545.9 709.5 545 L 700 536.5 L 693 524.5 L 686 504.5 L 682 485.5 L 681 466.5 L 682 465.5 L 683 454.5 L 687.5 446 L 689.5 445 Z " /><path fill="rgb(205,205,205)" stroke="rgb(205,205,205)" stroke-width="1" opacity="0.9019607843137255" d="M 675.5 557 Q 680.3 557.3 682 560.5 L 685 566.5 L 686 580.5 L 690 593.5 L 700 609 L 714.5 619 L 732.5 626 L 736.5 627 L 759.5 627 L 775.5 622 Q 793.9 613.9 808.5 602 L 814.5 601 Q 817.6 602.4 817 607.5 Q 812.6 617.6 804.5 624 L 787.5 634 L 777.5 637 L 767.5 639 L 746.5 639 L 725.5 635 L 713.5 631 L 687.5 616 L 678 606.5 Q 671.2 598.8 668 587.5 L 667 572.5 L 670 562.5 L 673.5 558 L 675.5 557 Z " /><path fill="rgb(205,205,205)" stroke="rgb(205,205,205)" stroke-width="1" opacity="0.9019607843137255" d="M 763.5 590 Q 770.3 589.1 773 591 L 774 594.5 L 765.5 605 L 758.5 609 L 751.5 609 L 748 606.5 L 747 603.5 L 751.5 597 L 763.5 590 Z " /></svg>